<svg width="24" height="24" viewBox="0 0 24 24" fill="none" xmlns="http://www.w3.org/2000/svg">
<path d="M1.75 6.1875H21.25C21.6642 6.1875 22 5.85173 22 5.4375V3.5625C22 3.14827 21.6642 2.8125 21.25 2.8125H1.75C1.33577 2.8125 1 3.14827 1 3.5625V5.4375C1 5.85173 1.33577 6.1875 1.75 6.1875ZM1.75 13.6875H21.25C21.6642 13.6875 22 13.3517 22 12.9375V11.0625C22 10.6483 21.6642 10.3125 21.25 10.3125H1.75C1.33577 10.3125 1 10.6483 1 11.0625V12.9375C1 13.3517 1.33577 13.6875 1.75 13.6875ZM1.75 21.1875H21.25C21.6642 21.1875 22 20.8517 22 20.4375V18.5625C22 18.1483 21.6642 17.8125 21.25 17.8125H1.75C1.33577 17.8125 1 18.1483 1 18.5625V20.4375C1 20.8517 1.33577 21.1875 1.75 21.1875Z" fill="white"/>
</svg>
